<svg width="1347" height="213" viewBox="0 0 1347 213" fill="none" xmlns="http://www.w3.org/2000/svg">
<path d="M45.584 210C42.704 210 40.4 209.232 38.672 207.696C37.136 205.968 36.08 203.856 35.504 201.36L1.232 16.752C1.232 16.176 1.136 15.696 0.944001 15.312C0.944001 14.928 0.944001 14.64 0.944001 14.448C0.944001 12.72 1.52 11.28 2.672 10.128C4.016 8.97599 5.456 8.39999 6.992 8.39999H32.336C37.136 8.39999 39.824 10.32 40.4 14.16L64.304 144.624L90.224 60.24C90.8 58.704 91.76 57.168 93.104 55.632C94.64 53.904 96.848 53.04 99.728 53.04H115.28C118.352 53.04 120.56 53.904 121.904 55.632C123.248 57.168 124.112 58.704 124.496 60.24L150.704 144.336L174.608 14.16C175.184 10.32 177.872 8.39999 182.672 8.39999H208.016C209.552 8.39999 210.896 8.97599 212.048 10.128C213.2 11.28 213.776 12.72 213.776 14.448C213.776 14.64 213.776 14.928 213.776 15.312C213.776 15.696 213.68 16.176 213.488 16.752L179.216 201.36C178.832 203.856 177.776 205.968 176.048 207.696C174.32 209.232 172.016 210 169.136 210H149.84C146.96 210 144.656 209.232 142.928 207.696C141.392 206.16 140.336 204.528 139.76 202.8L107.504 106.608L75.248 202.8C74.48 204.528 73.328 206.16 71.792 207.696C70.256 209.232 67.952 210 64.88 210H45.584ZM281.434 212.88C271.45 212.88 262.426 210.96 254.362 207.12C246.298 203.088 239.866 197.808 235.066 191.28C230.458 184.56 228.154 177.072 228.154 168.816C228.154 155.376 233.53 144.72 244.282 136.848C255.226 128.784 269.626 123.408 287.482 120.72L326.938 114.96V108.912C326.938 100.848 324.922 94.608 320.89 90.192C316.858 85.776 309.946 83.568 300.154 83.568C293.242 83.568 287.578 85.008 283.162 87.888C278.938 90.576 275.77 94.224 273.658 98.832C272.122 101.328 269.914 102.576 267.034 102.576H244.282C242.17 102.576 240.538 102 239.386 100.848C238.426 99.696 237.945 98.16 237.945 96.24C238.138 93.168 239.386 89.424 241.69 85.008C243.994 80.592 247.642 76.368 252.634 72.336C257.626 68.112 264.058 64.56 271.93 61.68C279.802 58.8 289.306 57.36 300.442 57.36C312.538 57.36 322.714 58.896 330.97 61.968C339.418 64.848 346.138 68.784 351.13 73.776C356.122 78.768 359.77 84.624 362.074 91.344C364.378 98.064 365.53 105.168 365.53 112.656V203.088C365.53 205.008 364.858 206.64 363.514 207.984C362.17 209.328 360.538 210 358.618 210H335.29C333.178 210 331.45 209.328 330.106 207.984C328.954 206.64 328.378 205.008 328.378 203.088V191.856C325.882 195.504 322.522 198.96 318.298 202.224C314.074 205.296 308.89 207.888 302.746 210C296.794 211.92 289.69 212.88 281.434 212.88ZM291.226 185.52C297.946 185.52 303.994 184.08 309.37 181.2C314.938 178.32 319.258 173.904 322.33 167.952C325.594 161.808 327.226 154.128 327.226 144.912V138.864L298.426 143.472C287.098 145.2 278.65 147.984 273.082 151.824C267.514 155.664 264.73 160.368 264.73 165.936C264.73 170.16 265.978 173.808 268.474 176.88C271.162 179.76 274.522 181.968 278.554 183.504C282.586 184.848 286.81 185.52 291.226 185.52ZM409.677 210C407.757 210 406.125 209.328 404.781 207.984C403.437 206.64 402.765 205.008 402.765 203.088V12.432C402.765 10.512 403.437 8.87999 404.781 7.536C406.125 6.19199 407.757 5.51999 409.677 5.51999H433.005C435.117 5.51999 436.749 6.19199 437.901 7.536C439.245 8.87999 439.917 10.512 439.917 12.432V110.928L488.301 65.136C490.029 63.6 491.565 62.448 492.909 61.68C494.253 60.72 496.269 60.24 498.957 60.24H525.741C527.661 60.24 529.197 60.816 530.349 61.968C531.501 63.12 532.077 64.656 532.077 66.576C532.077 67.344 531.885 68.208 531.501 69.168C531.117 70.128 530.349 70.992 529.197 71.76L469.869 127.344L536.397 198.768C538.317 200.688 539.277 202.32 539.277 203.664C539.277 205.584 538.605 207.12 537.261 208.272C536.109 209.424 534.669 210 532.941 210H505.581C502.701 210 500.589 209.616 499.245 208.848C498.093 207.888 496.653 206.64 494.925 205.104L439.917 147.216V203.088C439.917 205.008 439.245 206.64 437.901 207.984C436.749 209.328 435.117 210 433.005 210H409.677ZM601.496 212.88C591.512 212.88 582.488 210.96 574.424 207.12C566.36 203.088 559.928 197.808 555.128 191.28C550.52 184.56 548.216 177.072 548.216 168.816C548.216 155.376 553.592 144.72 564.344 136.848C575.288 128.784 589.688 123.408 607.544 120.72L647 114.96V108.912C647 100.848 644.984 94.608 640.952 90.192C636.92 85.776 630.008 83.568 620.216 83.568C613.304 83.568 607.64 85.008 603.224 87.888C599 90.576 595.832 94.224 593.72 98.832C592.184 101.328 589.976 102.576 587.096 102.576H564.344C562.232 102.576 560.6 102 559.448 100.848C558.488 99.696 558.008 98.16 558.008 96.24C558.2 93.168 559.448 89.424 561.752 85.008C564.056 80.592 567.704 76.368 572.696 72.336C577.688 68.112 584.12 64.56 591.992 61.68C599.864 58.8 609.368 57.36 620.504 57.36C632.6 57.36 642.776 58.896 651.032 61.968C659.48 64.848 666.2 68.784 671.192 73.776C676.184 78.768 679.832 84.624 682.136 91.344C684.44 98.064 685.592 105.168 685.592 112.656V203.088C685.592 205.008 684.92 206.64 683.576 207.984C682.232 209.328 680.6 210 678.68 210H655.352C653.24 210 651.512 209.328 650.168 207.984C649.016 206.64 648.44 205.008 648.44 203.088V191.856C645.944 195.504 642.584 198.96 638.36 202.224C634.136 205.296 628.952 207.888 622.808 210C616.856 211.92 609.752 212.88 601.496 212.88ZM611.288 185.52C618.008 185.52 624.056 184.08 629.432 181.2C635 178.32 639.32 173.904 642.392 167.952C645.656 161.808 647.288 154.128 647.288 144.912V138.864L618.488 143.472C607.16 145.2 598.712 147.984 593.144 151.824C587.576 155.664 584.792 160.368 584.792 165.936C584.792 170.16 586.04 173.808 588.536 176.88C591.224 179.76 594.584 181.968 598.616 183.504C602.648 184.848 606.872 185.52 611.288 185.52ZM750.822 210C748.902 210 747.27 209.328 745.926 207.984C744.582 206.64 743.91 205.008 743.91 203.088V43.824H690.63C688.71 43.824 687.078 43.152 685.734 41.808C684.39 40.464 683.718 38.832 683.718 36.912V15.6C683.718 13.488 684.39 11.76 685.734 10.416C687.078 9.07199 688.71 8.39999 690.63 8.39999H837.51C839.622 8.39999 841.35 9.07199 842.694 10.416C844.038 11.76 844.71 13.488 844.71 15.6V36.912C844.71 38.832 844.038 40.464 842.694 41.808C841.35 43.152 839.622 43.824 837.51 43.824H784.518V203.088C784.518 205.008 783.846 206.64 782.502 207.984C781.158 209.328 779.43 210 777.318 210H750.822ZM875.701 210C873.781 210 872.149 209.328 870.805 207.984C869.461 206.64 868.789 205.008 868.789 203.088V67.152C868.789 65.232 869.461 63.6 870.805 62.256C872.149 60.912 873.781 60.24 875.701 60.24H899.605C901.717 60.24 903.349 60.912 904.501 62.256C905.845 63.6 906.517 65.232 906.517 67.152V203.088C906.517 205.008 905.845 206.64 904.501 207.984C903.349 209.328 901.717 210 899.605 210H875.701ZM874.549 35.472C872.437 35.472 870.709 34.896 869.365 33.744C868.213 32.4 867.637 30.672 867.637 28.56V7.82399C867.637 5.904 868.213 4.27199 869.365 2.92799C870.709 1.58399 872.437 0.911997 874.549 0.911997H900.757C902.869 0.911997 904.597 1.58399 905.941 2.92799C907.285 4.27199 907.957 5.904 907.957 7.82399V28.56C907.957 30.672 907.285 32.4 905.941 33.744C904.597 34.896 902.869 35.472 900.757 35.472H874.549ZM957.545 210C955.625 210 953.993 209.328 952.649 207.984C951.305 206.64 950.633 205.008 950.633 203.088V67.152C950.633 65.232 951.305 63.6 952.649 62.256C953.993 60.912 955.625 60.24 957.545 60.24H980.009C981.929 60.24 983.561 60.912 984.905 62.256C986.249 63.6 986.921 65.232 986.921 67.152V76.944C990.953 71.568 996.329 67.056 1003.05 63.408C1009.96 59.568 1018.12 57.552 1027.53 57.36C1049.42 56.976 1064.68 65.52 1073.32 82.992C1077.74 75.312 1084.07 69.168 1092.33 64.56C1100.78 59.76 1110.09 57.36 1120.27 57.36C1130.25 57.36 1139.27 59.664 1147.34 64.272C1155.59 68.88 1162.03 75.888 1166.63 85.296C1171.43 94.512 1173.83 106.224 1173.83 120.432V203.088C1173.83 205.008 1173.16 206.64 1171.82 207.984C1170.47 209.328 1168.84 210 1166.92 210H1143.31C1141.39 210 1139.75 209.328 1138.41 207.984C1137.07 206.64 1136.39 205.008 1136.39 203.088V122.736C1136.39 114.096 1135.15 107.28 1132.65 102.288C1130.15 97.104 1126.79 93.456 1122.57 91.344C1118.35 89.232 1113.64 88.176 1108.46 88.176C1104.23 88.176 1100.01 89.232 1095.79 91.344C1091.56 93.456 1088.11 97.104 1085.42 102.288C1082.73 107.28 1081.39 114.096 1081.39 122.736V203.088C1081.39 205.008 1080.71 206.64 1079.37 207.984C1078.03 209.328 1076.39 210 1074.47 210H1050.86C1048.75 210 1047.02 209.328 1045.67 207.984C1044.52 206.64 1043.95 205.008 1043.95 203.088V122.736C1043.95 114.096 1042.6 107.28 1039.91 102.288C1037.23 97.104 1033.77 93.456 1029.55 91.344C1025.32 89.232 1020.81 88.176 1016.01 88.176C1011.59 88.176 1007.27 89.328 1003.05 91.632C998.825 93.744 995.369 97.296 992.681 102.288C989.993 107.28 988.649 114.096 988.649 122.736V203.088C988.649 205.008 987.977 206.64 986.633 207.984C985.289 209.328 983.657 210 981.737 210H957.545ZM1275.02 212.88C1253.71 212.88 1236.81 206.736 1224.33 194.448C1211.85 182.16 1205.13 164.688 1204.17 142.032C1203.98 140.112 1203.88 137.712 1203.88 134.832C1203.88 131.76 1203.98 129.36 1204.17 127.632C1204.94 113.232 1208.2 100.752 1213.96 90.192C1219.92 79.632 1228.08 71.568 1238.44 66C1248.81 60.24 1261 57.36 1275.02 57.36C1290.57 57.36 1303.63 60.624 1314.19 67.152C1324.75 73.488 1332.72 82.416 1338.09 93.936C1343.47 105.264 1346.16 118.416 1346.16 133.392V139.44C1346.16 141.36 1345.48 142.992 1344.14 144.336C1342.8 145.68 1341.07 146.352 1338.96 146.352H1243.34C1243.34 146.352 1243.34 146.64 1243.34 147.216C1243.34 147.792 1243.34 148.272 1243.34 148.656C1243.53 155.376 1244.78 161.616 1247.08 167.376C1249.58 172.944 1253.13 177.456 1257.74 180.912C1262.54 184.368 1268.2 186.096 1274.73 186.096C1280.11 186.096 1284.62 185.328 1288.27 183.792C1291.92 182.064 1294.89 180.144 1297.2 178.032C1299.5 175.92 1301.13 174.192 1302.09 172.848C1303.82 170.544 1305.16 169.2 1306.12 168.816C1307.28 168.24 1308.91 167.952 1311.02 167.952H1335.79C1337.71 167.952 1339.24 168.528 1340.4 169.68C1341.74 170.832 1342.32 172.272 1342.12 174C1341.93 177.072 1340.3 180.816 1337.23 185.232C1334.35 189.648 1330.12 193.968 1324.56 198.192C1318.99 202.416 1311.98 205.968 1303.53 208.848C1295.28 211.536 1285.77 212.88 1275.02 212.88ZM1243.34 122.16H1306.99V121.296C1306.99 113.808 1305.74 107.28 1303.24 101.712C1300.75 96.144 1297.1 91.728 1292.3 88.464C1287.5 85.2 1281.74 83.568 1275.02 83.568C1268.3 83.568 1262.54 85.2 1257.74 88.464C1252.94 91.728 1249.29 96.144 1246.8 101.712C1244.49 107.28 1243.34 113.808 1243.34 121.296V122.16Z" fill="black"/>
</svg>
